<svg height="700" viewBox="0 0 700 700" width="700" xmlns="http://www.w3.org/2000/svg"><path d="m307.05881.52941258c43.896904 0 85.842266 27.58490062 126.09933 77.36672692 33.10071 40.9322905 64.74718 96.5421505 94.249382 162.6323675 24.017651 53.803841 45.687289 112.625706 62.690653 167.818178l1.265204 4.128931c13.490271 44.264623 22.224829 80.72847 22.224829 93.112597 0 29.272768-37.436493 57.806109-95.813313 80.460723-59.629812 23.14087-134.4935 37.068683-210.716085 37.068683s-151.086272-13.927813-210.7160849-37.068683c-58.3768195-22.654614-95.81331252-51.187955-95.81331252-80.460723 0-13.659559 10.66766152-56.749732 26.52357072-106.96641l.9772059-3.083206.8643689-2.708414c19.951896-62.321195 44.8191646-126.505538 72.1203139-183.155117 6.739539-13.98447 16.453664-25.096186 29.165889-34.440897 8.819065-6.482863 17.211604-11.119565 31.782932-18.111352l.786555-.376837 8.208181-3.912907 2.008498-.972836c18.608975-9.063085 27.111085-14.662702 33.836462-22.994763l.236642-.295217.44911-.571588c7.330735-9.45163 13.827975-20.756613 21.183056-36.2177568l.442348-.9326745 1.151002-2.4539986c.737659-1.5906067 1.804966-3.9329367 3.010538-6.5943311l8.843693-19.6250836.980497-2.1480636.791133-1.7082874c7.85633-16.8840711 14.096399-27.8489327 21.767378-36.9334496 11.29951-13.3816799 24.950884-20.85561122 41.400024-20.85561122zm-18.906484 49.08423312-.168746.2516983c-3.726209 5.6636127-7.748429 13.2148614-12.331383 23.0234958l-.383216.8226196-1.489509 3.2532733c-2.036115 4.5120759-7.479106 16.657376-10.64124 23.5754573l-.812891 1.772042-1.178231 2.529312-.98252 2.076901c-8.322772 17.486037-15.943747 30.733805-25.065514 42.494639-6.748607 8.701083-15.094639 15.850562-25.393755 22.322965l-.825252.51547c-6.030161 3.743151-11.645812 6.708341-20.979918 11.21075l-2.640963 1.267782-7.285332 3.466803-2.009582.965049c-10.897802 5.25725-17.428211 8.824358-23.341389 12.970764l-1.058516.7531-.688402.501451c-8.32918 6.12275-14.268515 12.916589-18.384563 21.457342-26.926374 55.871927-51.5372984 119.593087-71.1644421 181.286989l-.9052167 2.856439c-14.6954077 46.552559-24.9511578 87.890441-24.9511578 96.600225 0 .05379.0333012.2323.1372651.547282l.0489911.143382.1104919.296801c.4125711 1.05709 1.1529459 2.372726 2.2526931 3.890557 2.7442918 3.78757 7.2253248 8.154227 13.2859951 12.773548 13.4820731 10.275765 33.4249796 20.822877 57.6779823 30.234873 55.585987 21.571561 126.162557 34.701788 198.074804 34.701788 36.461868 0 72.580358-3.375548 106.575563-9.515452-96.46351-35.031295-144.693208-88.506803-144.693208-160.425716 0-116.366192 73.05882-159.024848 73.05882-244.588224 0-40.358289-17.94922-81.7027579-53.847659-124.0334063z" fill="#5b67d8" transform="translate(50 45)"/></svg>