<svg height="44" viewBox="0 0 109 44" width="109" xmlns="http://www.w3.org/2000/svg" xmlns:xlink="http://www.w3.org/1999/xlink"><defs><path id="a" d="m137 11h85c2.209139 0 4 1.790861 4 4v3c0 2.209139-1.790861 4-4 4h-85c-2.209139 0-4-1.790861-4-4v-3c0-2.209139 1.790861-4 4-4z"/><filter id="b" height="863.6%" width="190.3%" x="-43%" y="-272.7%"><feOffset dx="2" dy="12" in="SourceAlpha" result="shadowOffsetOuter1"/><feGaussianBlur in="shadowOffsetOuter1" result="shadowBlurOuter1" stdDeviation="12"/><feColorMatrix in="shadowBlurOuter1" values="0 0 0 0 0.282387658   0 0 0 0 0.0672295137   0 0 0 0 0.526126585  0 0 0 0.46 0"/></filter><filter id="c" height="554.5%" width="153.8%" x="-24.7%" y="-118.2%"><feOffset dx="-2" dy="1" in="SourceAlpha" result="shadowOffsetInner1"/><feComposite in="shadowOffsetInner1" in2="SourceAlpha" k2="-1" k3="1" operator="arithmetic" result="shadowInnerInner1"/><feColorMatrix in="shadowInnerInner1" values="0 0 0 0 1   0 0 0 0 1   0 0 0 0 1  0 0 0 0.08 0"/></filter><path id="d" d="m138 27h83c2.761424 0 5 2.2385763 5 5v18c0 2.7614237-2.238576 5-5 5h-83c-2.761424 0-5-2.2385763-5-5v-18c0-2.7614237 2.238576-5 5-5z"/><filter id="e" height="400%" width="190.3%" x="-43%" y="-107.1%"><feOffset dx="2" dy="12" in="SourceAlpha" result="shadowOffsetOuter1"/><feGaussianBlur in="shadowOffsetOuter1" result="shadowBlurOuter1" stdDeviation="12"/><feColorMatrix in="shadowBlurOuter1" result="shadowMatrixOuter1" values="0 0 0 0 0.282387658   0 0 0 0 0.0672295137   0 0 0 0 0.526126585  0 0 0 0.46 0"/><feOffset dx="1" dy="12" in="SourceAlpha" result="shadowOffsetOuter2"/><feGaussianBlur in="shadowOffsetOuter2" result="shadowBlurOuter2" stdDeviation="2"/><feColorMatrix in="shadowBlurOuter2" result="shadowMatrixOuter2" values="0 0 0 0 0.147750826   0 0 0 0 0.0378872868   0 0 0 0 0.454059103  0 0 0 0.73 0"/><feMerge><feMergeNode in="shadowMatrixOuter1"/><feMergeNode in="shadowMatrixOuter2"/></feMerge></filter><filter id="f" height="278.6%" width="153.8%" x="-24.7%" y="-46.4%"><feOffset dx="-2" dy="1" in="SourceAlpha" result="shadowOffsetInner1"/><feComposite in="shadowOffsetInner1" in2="SourceAlpha" k2="-1" k3="1" operator="arithmetic" result="shadowInnerInner1"/><feColorMatrix in="shadowInnerInner1" values="0 0 0 0 1   0 0 0 0 1   0 0 0 0 1  0 0 0 0.08 0"/></filter></defs><g fill="none" fill-rule="evenodd" transform="translate(-111 -6)"><use fill="#000" filter="url(#b)" xlink:href="#a"/><use fill="#635ff6" xlink:href="#a"/><use fill="#000" filter="url(#c)" xlink:href="#a"/><use fill="#000" filter="url(#e)" xlink:href="#d"/><use fill="#635ff6" xlink:href="#d"/><use fill="#000" filter="url(#f)" xlink:href="#d"/></g></svg>